<svg version="1.2" xmlns="http://www.w3.org/2000/svg" viewBox="0 0 1000 330" width="1000" height="330"><style>tspan{white-space:pre}.a{fill:#f8f9fa;stroke:#343a40;stroke-width:2}.b{font-size: 16px;fill: #343a40;font-family: "Arial"}.c{stroke:#343a40}.d{font-size: 13px;fill: #000000;font-weight: 400;font-family: "LiberationSans", "Liberation Sans"}.e{font-size: 12px;fill: #000000;font-family: "Arial"}.f{font-size: 12px;fill: #495057;font-family: "Arial"}.g{fill:none;stroke:#495057;stroke-width:2}.h{stroke:#495057;stroke-width:3}</style><path fill-rule="evenodd" class="a" d="m13 12h200v180h-200z"/><text style="transform:matrix(1,0,0,1,113,37)" ><tspan x="-10.1" y="0" class="b">AF
</tspan></text><path fill-rule="evenodd" class="c" d="m13 47h200"/><text style="transform:matrix(1,0,0,1,23,67)" ><tspan x="0" y="0" class="d">id
</tspan></text><text style="transform:matrix(1,0,0,1,143,67)" ><tspan x="0" y="0" class="e">INTEGER
</tspan></text><text style="transform:matrix(1,0,0,1,23,87)" ><tspan x="0" y="0" class="f">numero
</tspan></text><text style="transform:matrix(1,0,0,1,143,87)" ><tspan x="0" y="0" class="e">INTEGER
</tspan></text><text style="transform:matrix(1,0,0,1,23,107)" ><tspan x="0" y="0" class="f">fornecedor
</tspan></text><text style="transform:matrix(1,0,0,1,143,107)" ><tspan x="0" y="0" class="e">TEXT
</tspan></text><text style="transform:matrix(1,0,0,1,23,127)" ><tspan x="0" y="0" class="f">descricao
</tspan></text><text style="transform:matrix(1,0,0,1,143,127)" ><tspan x="0" y="0" class="e">TEXT
</tspan></text><text style="transform:matrix(1,0,0,1,23,147)" ><tspan x="0" y="0" class="f">data_inicio
</tspan></text><text style="transform:matrix(1,0,0,1,143,147)" ><tspan x="0" y="0" class="e">DATE
</tspan></text><text style="transform:matrix(1,0,0,1,23,167)" ><tspan x="0" y="0" class="f">data_fim
</tspan></text><text style="transform:matrix(1,0,0,1,143,167)" ><tspan x="0" y="0" class="e">DATE
</tspan></text><text style="transform:matrix(1,0,0,1,23,187)" ><tspan x="0" y="0" class="f">status
</tspan></text><text style="transform:matrix(1,0,0,1,143,187)" ><tspan x="0" y="0" class="e">BOOLEAN
</tspan></text><path fill-rule="evenodd" class="a" d="m11 212h200v100h-200z"/><text style="transform:matrix(1,0,0,1,111,237)" ><tspan x="-20.7" y="0" class="b">Local
</tspan></text><path fill-rule="evenodd" class="c" d="m11 247h200"/><text style="transform:matrix(1,0,0,1,21,267)" ><tspan x="0" y="0" class="d">id
</tspan></text><text style="transform:matrix(1,0,0,1,141,267)" ><tspan x="0" y="0" class="e">INTEGER
</tspan></text><text style="transform:matrix(1,0,0,1,21,287)" ><tspan x="0" y="0" class="f">nome
</tspan></text><text style="transform:matrix(1,0,0,1,141,287)" ><tspan x="0" y="0" class="e">TEXT
</tspan></text><path fill-rule="evenodd" class="a" d="m377 65h250v220h-250z"/><text style="transform:matrix(1,0,0,1,502,90)" ><tspan x="-18.2" y="0" class="b">Item
</tspan></text><path fill-rule="evenodd" class="c" d="m377 100h250"/><text style="transform:matrix(1,0,0,1,387,120)" ><tspan x="0" y="0" class="d">id
</tspan></text><text style="transform:matrix(1,0,0,1,547,120)" ><tspan x="0" y="0" class="e">INTEGER
</tspan></text><text style="transform:matrix(1,0,0,1,387,140)" ><tspan x="0" y="0" class="d">AF_id
</tspan></text><text style="transform:matrix(1,0,0,1,547,140)" ><tspan x="0" y="0" class="e">INTEGER
</tspan></text><text style="transform:matrix(1,0,0,1,387,160)" ><tspan x="0" y="0" class="d">Local_id
</tspan></text><text style="transform:matrix(1,0,0,1,547,160)" ><tspan x="0" y="0" class="e">INTEGER
</tspan></text><text style="transform:matrix(1,0,0,1,387,180)" ><tspan x="0" y="0" class="f">descricao
</tspan></text><text style="transform:matrix(1,0,0,1,547,180)" ><tspan x="0" y="0" class="e">TEXT
</tspan></text><text style="transform:matrix(1,0,0,1,387,200)" ><tspan x="0" y="0" class="f">banda_maxima
</tspan></text><text style="transform:matrix(1,0,0,1,547,200)" ><tspan x="0" y="0" class="e">INTEGER
</tspan></text><text style="transform:matrix(1,0,0,1,387,220)" ><tspan x="0" y="0" class="f">banda_instalada
</tspan></text><text style="transform:matrix(1,0,0,1,547,220)" ><tspan x="0" y="0" class="e">INTEGER
</tspan></text><text style="transform:matrix(1,0,0,1,387,240)" ><tspan x="0" y="0" class="f">data_instalacao
</tspan></text><text style="transform:matrix(1,0,0,1,547,240)" ><tspan x="0" y="0" class="e">DATE
</tspan></text><text style="transform:matrix(1,0,0,1,387,260)" ><tspan x="0" y="0" class="f">quantidade
</tspan></text><text style="transform:matrix(1,0,0,1,547,260)" ><tspan x="0" y="0" class="e">INTEGER
</tspan></text><text style="transform:matrix(1,0,0,1,387,280)" ><tspan x="0" y="0" class="f">status
</tspan></text><text style="transform:matrix(1,0,0,1,547,280)" ><tspan x="0" y="0" class="e">BOOLEAN
</tspan></text><path fill-rule="evenodd" class="a" d="m790 108h200v140h-200z"/><text style="transform:matrix(1,0,0,1,890,133)" ><tspan x="-20.2" y="0" class="b">Valor
</tspan></text><path fill-rule="evenodd" class="c" d="m790 143h200"/><text style="transform:matrix(1,0,0,1,800,163)" ><tspan x="0" y="0" class="d">id
</tspan></text><text style="transform:matrix(1,0,0,1,920,163)" ><tspan x="0" y="0" class="e">INTEGER
</tspan></text><text style="transform:matrix(1,0,0,1,800,183)" ><tspan x="0" y="0" class="d">Item_id
</tspan></text><text style="transform:matrix(1,0,0,1,920,183)" ><tspan x="0" y="0" class="e">INTEGER
</tspan></text><text style="transform:matrix(1,0,0,1,800,203)" ><tspan x="0" y="0" class="f">valor
</tspan></text><text style="transform:matrix(1,0,0,1,920,203)" ><tspan x="0" y="0" class="e">INTEGER
</tspan></text><text style="transform:matrix(1,0,0,1,800,223)" ><tspan x="0" y="0" class="f">data_inicio
</tspan></text><text style="transform:matrix(1,0,0,1,920,223)" ><tspan x="0" y="0" class="e">DATE
</tspan></text><text style="transform:matrix(1,0,0,1,800,243)" ><tspan x="0" y="0" class="f">data_fim
</tspan></text><text style="transform:matrix(1,0,0,1,920,243)" ><tspan x="0" y="0" class="e">DATE
</tspan></text><path class="g" d="m212 140l150 10"/><path fill-rule="evenodd" class="h" d="m222 145v-8"/><path fill-rule="evenodd" class="g" d="m362 150l15 10"/><path fill-rule="evenodd" class="g" d="m362 150h15"/><path fill-rule="evenodd" class="g" d="m362 150l15-10"/><path class="g" d="m211 241l150 10"/><path fill-rule="evenodd" class="h" d="m219 237v8"/><path fill-rule="evenodd" class="g" d="m361 251l15 10"/><path fill-rule="evenodd" class="g" d="m361 251h15"/><path fill-rule="evenodd" class="g" d="m361 251l15-10"/><path class="g" d="m626 168l150 10"/><path fill-rule="evenodd" class="h" d="m637 165v8"/><path fill-rule="evenodd" class="g" d="m775 178l15 10"/><path fill-rule="evenodd" class="g" d="m775 178h15"/><path fill-rule="evenodd" class="g" d="m775 178l15-10"/></svg>